<?xml version="1.0" encoding="UTF-8"?>
<!-- Created with Inkscape (http://www.inkscape.org/) -->
<svg id="svg2" width="1646.6" height="1e3" version="1.1" viewBox="0 0 1646.6 1e3" xml:space="preserve" xmlns="http://www.w3.org/2000/svg" xmlns:cc="http://creativecommons.org/ns#" xmlns:dc="http://purl.org/dc/elements/1.1/" xmlns:rdf="http://www.w3.org/1999/02/22-rdf-syntax-ns#"><metadata id="metadata8"><rdf:RDF><cc:Work rdf:about=""><dc:format>image/svg+xml</dc:format><dc:type rdf:resource="http://purl.org/dc/dcmitype/StillImage"/><dc:title/></cc:Work></rdf:RDF></metadata><g id="g10" transform="matrix(1.3333 0 0 -1.3333 0 1e3)"><g id="g12" transform="scale(.62371)"><path id="path14" d="m1151.2 834.32c-10.3 216.29-103.6 368.16-247.07 368.16-191.27 0-399.05-269.8-464.13-602.6-11.675-59.778-17.871-117.45-19.226-171.93h71.804c2.067 45.477 7.454 93.106 16.559 142.22 58.605 315.63 246.54 571.51 419.85 571.51 120.99 0 202.8-124.71 221.29-307.36h0.92" fill="#7cb1dd"/><path id="path16" d="m643.71 60.801c-120.99 0-202.8 124.7-221.28 307.34h-0.906c10.273-216.29 103.58-368.14 247.04-368.14 127.91 0 263.08 120.68 358.16 300.1h-83.353c-83.801-144.82-194.4-239.3-299.66-239.3" fill="#7cb1dd"/><path id="path18" d="m730.44 834.32c-10.27 216.29-103.61 368.16-247.06 368.16-191.3 0-399.08-269.8-464.13-602.6-11.695-59.778-17.895-117.45-19.246-171.93h71.844c2.0273 45.477 7.4335 93.106 16.539 142.22 58.586 315.63 246.54 571.51 419.86 571.51 120.98 0 202.81-124.71 221.27-307.36h0.926" fill="#7cb1dd"/><path id="path20" d="m222.94 60.801c-120.96 0-202.81 124.7-221.28 307.34h-0.89453c10.297-216.29 103.59-368.14 247.05-368.14 127.9 0 263.11 120.68 358.16 300.1h-83.355c-83.801-144.82-194.4-239.3-299.68-239.3" fill="#7cb1dd"/><path id="path22" d="m1218.6 262.92c2.42 22.988-7.6 39.445-30.37 39.445-27.46 0-46.33-14.668-51.88-40.558-9.9-46.629 45.06-55.203 38.2-87.375-2.1-9.7-9.7-14.879-19.37-14.879-9.02 0-13.81 8.129-11.44 24.539l-27.4-3.828c-4.07-24.313 6.42-45.051 32.3-45.051 26.13 0 47.3 14.879 53.03 41.668 9.38 44.125-44.56 57.418-38.68 85.152 2.13 10.137 8.38 16.004 17.39 16.004 6.29 0 12.85-4.07 11.03-18.047l27.19 2.93" fill="#f89c0e"/><path id="path24" d="m1283.7 205.06 53.98 95.039h-28.4l-31.85-61.934h-0.47l-6.41 61.934h-28.4l13.58-95.039-14.37-67.61h27.94l14.4 67.61" fill="#f89c0e"/><path id="path26" d="m1427.4 262.92c2.4 22.988-7.62 39.445-30.33 39.445-27.47 0-46.39-14.668-51.9-40.558-9.92-46.629 45.02-55.203 38.2-87.375-2.07-9.7-9.7-14.879-19.39-14.879-9.02 0-13.81 8.129-11.45 24.539l-27.4-3.828c-4.04-24.313 6.43-45.051 32.33-45.051 26.11 0 47.3 14.879 52.98 41.668 9.38 44.125-44.53 57.418-38.63 85.152 2.13 10.137 8.36 16.004 17.37 16.004 6.3 0 12.87-4.07 11.01-18.047l27.21 2.93" fill="#f89c0e"/><path id="path28" d="m1443.9 137.45h27.93l29.38 138.3h27.05l5.19 24.348h-82.01l-5.14-24.348h27.02l-29.42-138.3" fill="#f89c0e"/><path id="path30" d="m1597.6 137.45 5.14 24.36h-50l10.16 47.722h36.05l5.18 24.344h-36.04l8.91 41.875h46.87l5.16 24.348h-74.79l-34.57-162.65h77.93" fill="#f89c0e"/><path id="path32" d="m1733.9 300.1-40.04-95.039h-0.47l0.41 95.039h-36.71l-34.59-162.65h24.35l26.99 127.05h0.43l-1.75-127.05h13.53l52.21 127.05h0.45l-27.01-127.05h24.31l34.57 162.65h-36.68" fill="#f89c0e"/><path id="path34" d="m1870.2 262.92c2.4 22.988-7.64 39.445-30.37 39.445-27.46 0-46.37-14.668-51.84-40.558-9.9-46.629 45-55.203 38.15-87.375-2.07-9.7-9.67-14.879-19.36-14.879-9 0-13.83 8.129-11.44 24.539l-27.39-3.828c-4.06-24.313 6.41-45.051 32.31-45.051 26.13 0 47.3 14.879 53.01 41.668 9.37 44.125-44.57 57.418-38.68 85.152 2.17 10.137 8.36 16.004 17.37 16.004 6.35 0 12.89-4.07 11.05-18.047l27.19 2.93" fill="#f89c0e"/><path id="path36" d="m1080.1 774.52c-2.05-45.477-7.44-93.102-16.56-142.23-18.31-98.633-49.25-191.41-88.429-272.39h80.789c33.34 74.258 59.91 156.32 76.8 242.7 11.66 59.747 17.87 117.42 19.22 171.92h-71.82" fill="#125a9e"/><path id="path38" d="m659.36 774.52c-2.042-45.477-7.429-93.102-16.55-142.23-18.293-98.633-49.242-191.41-88.426-272.39h80.789c33.328 74.258 59.887 156.32 76.781 242.7 11.684 59.747 17.895 117.42 19.235 171.92h-71.829" fill="#125a9e"/><path id="path40" d="m1001.8 679.77c6.68 58.574-18.491 100.5-76.514 100.5-70.059 0-118.54-37.313-133.19-103.37-26.328-118.89 113.55-140.7 95.348-222.83-5.476-24.668-25.086-37.883-49.769-37.883-22.954 0-35.024 20.675-28.618 62.578l-69.921-9.754c-10.887-62.031 15.304-114.86 81.371-114.86 66.609 0 120.96 37.903 136.09 106.24 24.98 112.55-112.23 146.43-96.582 217.07 5.73 25.84 21.667 40.781 44.64 40.781 16.067 0 32.746-10.332 27.719-45.937l69.428 7.461" fill="#125a9e"/><path id="path42" d="m1342.9 359.9 13.77 62.012h-112l78.2 352.61h-71.22l-91.95-414.62h183.2" fill="#125a9e"/><path id="path44" d="m1522.7 672.3c6.88 30.996 19.38 45.937 48.11 45.937 28.71 0 34.57-14.941 27.71-45.937l-46.62-210.18c-6.86-31.004-19.37-45.949-48.07-45.949-28.75 0-34.61 14.945-27.75 45.949zm-118.16-211.91c-13.03-58.586 10.88-106.24 85.52-106.24 74.67 0 119.69 47.657 132.7 106.24l47.36 213.63c12.97 58.575-10.93 106.24-85.58 106.24s-119.69-47.664-132.66-106.24l-47.34-213.63" fill="#125a9e" fill-rule="evenodd"/><path id="path46" d="m1734.1 359.9 57.42 258.98h1.19l33.28-258.98h62.03l91.94 414.62h-64.34l-52.6-237.17h-1.13l-34.14 237.17h-66.06l-91.91-414.62h64.32" fill="#125a9e"/></g></g></svg>
